<svg xmlns="http://www.w3.org/2000/svg" viewBox="0 0 64 64" id="avoid-crowd"><g data-name="Layer 2"><path d="M2.648 46.985a26.016 26.016 0 0 0 17.375.34 25.731 25.731 0 0 0 16.153.057 22.922 22.922 0 0 0 4.136.967 1 1 0 0 0 .148-1.989 24.063 24.063 0 0 1-4.13-1.016c-.197-2.79.41-5.713 2.666-7.58a1 1 0 0 0-1.312-1.51 9.716 9.716 0 0 0-1.523 1.69 9.884 9.884 0 0 0-6.389-3.99c6.859-2.414 6.92-13.038-1.606-12.994-8.523-.043-8.463 10.576-1.609 12.993a9.85 9.85 0 0 0-6.564 4.226 9.79 9.79 0 0 0-6.545-4.228c6.85-2.424 6.905-13.034-1.615-12.991-8.522-.043-8.464 10.574-1.61 12.992A9.837 9.837 0 0 0 2 43.64v2.41a1 1 0 0 0 .648.936zm20.897-20.107c-.014-5.257 9.257-5.257 9.243 0 0 2.462-2.019 5.324-4.621 5.324s-4.622-2.862-4.622-5.324zm4.625 8.931a7.861 7.861 0 0 1 6.894 4.147c-.807 1.75-.763 3.982-.734 5.883a24.113 24.113 0 0 1-14-.493v-1.707a7.844 7.844 0 0 1 7.84-7.83zM7.212 26.878c-.014-5.257 9.257-5.257 9.243 0 0 2.462-2.019 5.324-4.621 5.324s-4.622-2.862-4.622-5.324zM4 43.639c.078-8.339 11.34-10.826 14.919-3.317a14.537 14.537 0 0 0-.589 5.422A23.904 23.904 0 0 1 4 45.346zm11.334-23.437a1 1 0 0 0 1-1c-.015-5.257 9.256-5.257 9.242 0a1 1 0 0 0 2 0c.094-7.87-13.338-7.868-13.242 0a1 1 0 0 0 1 1z"></path><path d="M22.779 12.96a1 1 0 0 0 1-1c-.014-5.258 9.256-5.258 9.242 0a1 1 0 0 0 2 0c.094-7.871-13.337-7.87-13.242 0a1 1 0 0 0 1 1Z"></path><path d="M29 19.202a1 1 0 0 0 2 0c0-2.707 2.32-3.919 4.621-3.919s4.621 1.212 4.621 3.919a1 1 0 0 0 2 0c.094-7.87-13.337-7.868-13.242 0zm8.55 7.677a7.858 7.858 0 0 0 2.63 5.732 1 1 0 1 0 1.32-1.503 5.803 5.803 0 0 1-1.95-4.229c-.01-5.254 9.232-5.265 9.24-.002a1.007 1.007 0 1 0 2 .002c.094-7.87-13.335-7.87-13.24 0zM51 32.96a7.008 7.008 0 0 0-7 7c.329 9.265 13.673 9.263 14 0a7.008 7.008 0 0 0-7-7zm0 2a4.966 4.966 0 0 1 2.753.833l-6.92 6.92A5.027 5.027 0 0 1 51 34.96zm0 10a4.966 4.966 0 0 1-2.753-.833l6.92-6.92A5.027 5.027 0 0 1 51 44.96z"></path><path d="M51 28.96c-12.795.282-15.105 17.91-3 21.573v5.426a2.002 2.002 0 0 0 2 2h2a2.002 2.002 0 0 0 2-2v-5.426c12.113-3.668 9.785-21.294-3-21.574Zm1 27h-2v-5.051a10.166 10.166 0 0 0 2 0Zm-1-7a9.01 9.01 0 0 1-9-9c.473-11.932 17.53-11.928 18 0a9.01 9.01 0 0 1-9 9Z"></path></g></svg>