<svg xmlns="http://www.w3.org/2000/svg" xmlns:xlink="http://www.w3.org/1999/xlink" viewBox="0 0 64 64" id="online-shopping"><defs><linearGradient id="a" x1="32" x2="32" y1="64.346" y2="-1.088" gradientUnits="userSpaceOnUse"><stop offset="0" stop-color="#e93e3a"></stop><stop offset=".35" stop-color="#ed683c"></stop><stop offset=".7" stop-color="#f3903f"></stop><stop offset="1" stop-color="#fdc70c"></stop></linearGradient><linearGradient id="b" x1="37" x2="37" y1="64.346" y2="-1.088" xlink:href="#a"></linearGradient><linearGradient id="c" x1="27" x2="27" y1="64.346" y2="-1.088" xlink:href="#a"></linearGradient><linearGradient id="d" x1="51" x2="51" y1="64.346" y2="-1.088" xlink:href="#a"></linearGradient><linearGradient id="e" x1="13" x2="13" y1="64.346" y2="-1.088" xlink:href="#a"></linearGradient></defs><path fill="url(#a)" d="M61 52h-3V21.576A5 5 0 0 0 61 17v-5a1.006 1.006 0 0 0-.252-.665l-8-9A1 1 0 0 0 52 2H12a1 1 0 0 0-.748.335l-8 9A1.006 1.006 0 0 0 3 12v5a5 5 0 0 0 3 4.576V52H3a1 1 0 0 0-1 1v6a3 3 0 0 0 3 3h54a3 3 0 0 0 3-3v-6a1 1 0 0 0-1-1ZM12.449 4h39.1l6.222 7H6.227ZM5 17v-4h54v4a3 3 0 0 1-6 0h-2a3 3 0 0 1-6 0h-2a3 3 0 0 1-6 0h-2a3 3 0 0 1-6 0h-2a3 3 0 0 1-6 0h-2a3 3 0 0 1-6 0h-2a3 3 0 0 1-6 0Zm3 5a4.982 4.982 0 0 0 4-2.031 4.954 4.954 0 0 0 8 0 4.954 4.954 0 0 0 8 0 4.954 4.954 0 0 0 8 0 4.954 4.954 0 0 0 8 0 4.954 4.954 0 0 0 8 0A4.982 4.982 0 0 0 56 22v30H8Zm20 32h8v2h-8Zm32 5a1 1 0 0 1-1 1H5a1 1 0 0 1-1-1v-5h22v2a2 2 0 0 0 2 2h8a2 2 0 0 0 2-2v-2h22Z"></path><path fill="url(#a)" d="M44 30h-1.749l.476-2.689a3.047 3.047 0 0 0 .043-.511 2.99 2.99 0 0 0-2.478-2.944 2.951 2.951 0 0 0-2.234.484 2.981 2.981 0 0 0-1.243 1.947L36.159 30h-8.318l-.656-3.712a2.981 2.981 0 0 0-1.243-1.948 2.931 2.931 0 0 0-2.224-.485A2.991 2.991 0 0 0 21.23 26.8a3.109 3.109 0 0 0 .045.524L21.749 30H20a3.015 3.015 0 0 0-3 3 3 3 0 0 0 3 3h.074l.718 9.277A5 5 0 0 0 25.784 50h12.432a5 5 0 0 0 4.991-4.7l.719-9.3H44a3.015 3.015 0 0 0 3-3 3 3 0 0 0-3-3Zm-5.215-3.368a1 1 0 0 1 .414-.65.971.971 0 0 1 .739-.157.994.994 0 0 1 .832.975 1.032 1.032 0 0 1-.015.176L39.512 34h-2.03ZM35.805 32l-.353 2h-6.9l-.352-2Zm-11.733-6.177a.967.967 0 0 1 .729.159 1 1 0 0 1 .414.651L26.518 34h-2.03l-1.241-7.011a1.1 1.1 0 0 1-.017-.189 1 1 0 0 1 .842-.977ZM19 33a.974.974 0 0 1 .306-.712A.957.957 0 0 1 20 32h2.1l.354 2H20a1 1 0 0 1-1-1Zm22.211 12.166A3 3 0 0 1 38.216 48H25.784a3.007 3.007 0 0 1-3-2.855L22.08 36h19.84Zm3.483-11.454A.957.957 0 0 1 44 34h-2.458l.355-2H44a1 1 0 0 1 1 1 .974.974 0 0 1-.306.712Z"></path><path fill="url(#a)" d="M31 38h2v8h-2z"></path><path fill="url(#b)" d="M36 38h2v8h-2z"></path><path fill="url(#c)" d="M26 38h2v8h-2z"></path><path fill="url(#d)" d="M48 45h6v2h-6zM48 41h6v2h-6zM48 37h6v2h-6z"></path><path fill="url(#e)" d="M10 45h6v2h-6zM10 41h6v2h-6zM10 37h6v2h-6z"></path></svg>