<svg xmlns="http://www.w3.org/2000/svg" enable-background="new 0 0 64 64" viewBox="0 0 64 64" id="nodding"><path fill="#f9d500" d="M32,0C14.4,0,0,14.3,0,32c0,17.6,14.4,32,32,32c17.7,0,32-14.4,32-32C64,14.3,49.7,0,32,0z M42.3,15.3
			c3.8,0,7,2.7,7.6,6.4c0.1,0.6-0.3,1.1-0.9,1.2c-0.1,0-0.1,0-0.2,0c-0.5,0-0.9-0.4-1-0.9c-0.4-2.7-2.8-4.6-5.6-4.6
			c-2.8,0-5.2,2-5.6,4.6c-0.1,0.6-0.6,0.9-1.2,0.9c-0.6-0.1-0.9-0.6-0.9-1.2C35.3,18,38.5,15.3,42.3,15.3z M21.7,15.3
			c3.8,0,7,2.7,7.6,6.4c0.1,0.6-0.3,1.1-0.9,1.2c-0.1,0-0.1,0-0.2,0c-0.5,0-0.9-0.4-1-0.9c-0.4-2.7-2.8-4.6-5.6-4.6
			c-2.8,0-5.2,2-5.6,4.6c-0.1,0.6-0.6,0.9-1.2,0.9c-0.6-0.1-0.9-0.6-0.9-1.2C14.6,18,17.8,15.3,21.7,15.3z M32,52.7
			c-10.3,0-18.7-8.5-18.7-18.9c0-0.6,0.5-1,1-1c0.6,0,1,0.5,1,1c0,9.3,7.5,16.8,16.7,16.8c9.2,0,16.7-7.5,16.7-16.8c0-0.6,0.5-1,1-1
			c0.6,0,1,0.5,1,1C50.7,44.3,42.3,52.7,32,52.7z"></path><path fill="#eabe03" d="M64,32c0,17.6-14.3,32-32,32c-10.3,0-19.6-4.9-25.4-12.6C12,55.6,18.7,58,26,58c17.7,0,32-14.4,32-32
			c0-7.3-2.5-14-6.6-19.4C59.1,12.4,64,21.7,64,32z"></path><path fill="#322e63" d="M50.7,33.8c0,10.4-8.4,18.9-18.7,18.9c-10.3,0-18.7-8.5-18.7-18.9c0-0.6,0.5-1,1-1c0.6,0,1,0.5,1,1
			c0,9.3,7.5,16.8,16.7,16.8c9.2,0,16.7-7.5,16.7-16.8c0-0.6,0.5-1,1-1C50.3,32.8,50.7,33.3,50.7,33.8z"></path><g><path fill="#322e63" d="M29.3 21.7c.1.6-.3 1.1-.9 1.2-.1 0-.1 0-.2 0-.5 0-.9-.4-1-.9-.4-2.7-2.8-4.6-5.6-4.6-2.8 0-5.2 2-5.6 4.6-.1.6-.6.9-1.2.9-.6-.1-.9-.6-.9-1.2.6-3.7 3.8-6.4 7.6-6.4C25.5 15.3 28.7 18 29.3 21.7zM50 21.7c.1.6-.3 1.1-.9 1.2-.1 0-.1 0-.2 0-.5 0-.9-.4-1-.9-.4-2.7-2.8-4.6-5.6-4.6-2.8 0-5.2 2-5.6 4.6-.1.6-.6.9-1.2.9-.6-.1-.9-.6-.9-1.2.6-3.7 3.8-6.4 7.6-6.4C46.2 15.3 49.4 18 50 21.7z"></path></g></svg>