<svg xmlns="http://www.w3.org/2000/svg" enable-background="new 0 0 52 52" viewBox="0 0 52 52" id="friends"><rect width="15.269" height="18.246" x="28.953" y="15.46" fill="#3E5075"></rect><path fill="#E5A35A" d="M32.86389,35.76887h7.44663l0.00001-9.76585c0-4.25531,3.91497-5.35879,3.91497-11.16309
								c0-4.62955-3.41786-8.38915-7.64335-8.38915c-6.57318,0-10.3327,8.54146-5.31746,15.1092
								C33.87544,24.97891,32.46106,27.30414,32.86389,35.76887z"></path><path fill="#FFB564" d="M44.22219,14.8414c0,4.24243-2.3742,6.55943-3.0497,7.87622
								c-1.98859,3.79285-7.17786,3.7978-9.16962,0c-0.44757-0.87301-4.61367-5.5269-2.43958-11.16763
								C32.84353,3.12754,44.22219,5.84523,44.22219,14.8414z"></path><path d="M44.22549,14.8391c0,4.22471-2.34419,6.50153-3.05005,7.88c-1.64226,3.10388-5.52948,3.76667-7.98999,1.52002
								c3.83155,0.63833,5.07919-2.36664,6.21997-3.93005c3.49187-4.5665,2.91946-10.63504-0.94995-13.59998
								C41.9152,7.66289,44.22549,11.09777,44.22549,14.8391z" opacity=".05"></path><path fill="#FF5975" d="M50.00006,31.57178v7.31892H23.1746v-7.31892c0-1.82759,1.18486-3.47059,2.93891-3.98383
							c2.06736-0.60492,4.13471-1.02901,6.20207-1.27218c0.29171-0.03431,0.57233,0.13007,0.69049,0.39897l2.96953,6.75778
							c0.23217,0.52835,0.98162,0.52873,1.21432,0.00061c3.24249-7.35892,3.00209-7.23578,3.6684-7.15742
							c2.06763,0.24316,4.13509,0.66728,6.20275,1.27226C48.81515,28.10119,50.00006,29.74417,50.00006,31.57178z"></path><path d="M49.99551,31.56908v7.32001H23.17544v-2.69h18.52002c2.97998,0,5.38989-2.40997,5.38989-5.38v-1.92999
							c0-0.46997-0.07983-0.92999-0.21997-1.35999C48.91074,28.11349,49.99551,29.79405,49.99551,31.56908z" opacity=".05"></path><g><path fill="#3E5075" d="M43.13746,10.52738c-4.16509,0.53232-3.55405,0.74376-7.88516,0.8859
				c-5.31411,0.15853-5.13866,0.17257-5.68901,0.13671c1.16722-2.997,3.86982-5.10013,7.01399-5.10013
				C39.36242,6.44985,41.79625,8.08909,43.13746,10.52738z"></path></g><g><path fill="#E5A35A" d="M11.68936,32.6625l0.00001,9.76585H19.136l0.00001-9.76585c0-1.62195,0.61483-3.15396,1.5992-4.44304
							c4.96237-6.49849,1.33338-15.1092-5.32758-15.1092c-4.21537,0-7.63324,3.7596-7.63324,8.38915
							c0,2.35364,0.88553,4.84706,2.31577,6.72005C11.07453,29.50854,11.68936,31.04055,11.68936,32.6625z"></path><path fill="#FFB564" d="M20.7355,28.21911c-0.28003,0.37-0.53003,0.75-0.73999,1.15002
							c-0.90015,1.72998-2.63013,2.85998-4.58008,2.85998s-3.67993-1.13-4.59009-2.85998
							c-0.20996-0.40002-0.45996-0.78003-0.73999-1.15002c-1.42993-1.87-2.30994-4.37-2.30994-6.72003
							c0-0.70996,0.07996-1.39996,0.2301-2.04999c0.82983-3.64001,3.82983-6.33997,7.3999-6.33997
							c1.84009,0,3.52002,0.70996,4.83008,1.88v0.00995C24.0303,18.3748,23.77147,24.24881,20.7355,28.21911z"></path><path d="M20.7355,28.21911c-0.28003,0.37-0.53003,0.75-0.73999,1.15002c-0.90015,1.72998-2.63013,2.85998-4.58008,2.85998
							c-1.47998,0-2.83008-0.65002-3.79004-1.72003c0.40002,0.11005,0.83008,0.16003,1.26001,0.16003
							c1.93994,0,3.68005-1.13,4.58008-2.86005c0.20996-0.39996,0.45996-0.77997,0.73999-1.14996
							c1.42993-1.87,2.30994-4.37,2.30994-6.72003c0-2.56995-1.04993-4.87-2.69995-6.39996
							C23.10434,15.45286,24.93178,22.73142,20.7355,28.21911z" opacity=".06"></path><path fill="#8E9AFF" d="M28.82554,38.23127v7.31892H2.00008v-7.31892c0-1.82759,1.18486-3.47059,2.93891-3.98383
						c2.06736-0.60492,4.13471-1.02901,6.20207-1.27218c0.29171-0.03431,0.57233,0.13007,0.69049,0.39897l2.96953,6.75778
						c0.23217,0.52835,0.98162,0.52873,1.21432,0.00061l2.97818-6.75906c0.11833-0.26856,0.39876-0.43263,0.69022-0.39836
						c2.06764,0.24316,4.13509,0.66729,6.20276,1.27226C27.64063,34.76067,28.82554,36.40365,28.82554,38.23127z"></path><path d="M28.82554,38.23018v7.32001H2.00547v-2.69h18.52002c2.97998,0,5.38989-2.40997,5.38989-5.38v-1.92999
							c0-0.46997-0.07983-0.92999-0.21997-1.35999c0.07007,0.02002,0.13013,0.03998,0.20007,0.06
							C27.64549,34.76021,28.82554,36.41017,28.82554,38.23018z" opacity=".05"></path><g><path fill="#3E5075" d="M20.2355,14.98913v0.00995c0,0-6.81006,4.88-12.22998,4.45001
				c0.82983-3.64001,3.82983-6.33997,7.3999-6.33997C17.24551,13.10912,18.92544,13.81908,20.2355,14.98913z"></path></g><path fill="#293C66" d="M47.3418,26.62793c-0.70313-0.20551-1.4104-0.38379-2.11914-0.54956
			c0.00003-0.11282,0.00293-8.04384,0.00293-11.23853c0-5.16748-3.89993-9.36595-8.60718-9.38715
			c-0.01392-0.00006-0.02734-0.00299-0.04126-0.00299c-0.01636,0-0.0321,0.00378-0.04858,0.00391
			c-4.31396,0.02874-7.75814,3.4502-8.44519,7.79187c-0.00037,0.00214-0.00061,0.00433-0.00085,0.00647
			c-0.24557,1.55806-0.13267,3.53933-0.12939,12.82568c-0.70898,0.16583-1.41699,0.34436-2.12109,0.55029
			c-4.11873,1.20573-3.62765,5.61982-3.65723,5.71991c-0.66162-0.12109-1.32239-0.22626-1.9812-0.31091
			c0.40059-3.47728,3.96353-4.80422,3.85522-10.61835c-0.02856-1.53339-0.38281-3.0459-1.07422-4.44397
			c-4.15768-8.40387-16.2002-5.23851-16.2002,4.5249c0,5.67796,3.46662,7.14459,3.85815,10.53705
			c-1.9856,0.25531-3.99292,0.67133-5.97339,1.25104C2.50488,33.91797,1,35.95068,1,38.23145v7.31885c0,0.55225,0.44727,1,1,1
			h26.8252c0.55273,0,1-0.44775,1-1v-5.65967H50c0.55273,0,1-0.44775,1-1v-7.31885C51,29.29102,49.49609,27.2583,47.3418,26.62793z
			 M41.34668,25.37518c0.14197-1.25165,0.70544-2.18652,1.40869-3.28033c0.16272-0.21674,0.31885-0.44019,0.46729-0.67017v4.24127
			C42.59814,25.55389,41.9729,25.45569,41.34668,25.37518z M41.39282,9.75867c-4.91171,0.73829-4.31021,0.60121-10.19067,0.7782
			c0.92541-1.0534,2.18083-3.08618,5.37988-3.08618C38.33682,7.45068,40.06773,8.21151,41.39282,9.75867z M30.2959,12.56262
			c7.14242-0.14612,7.35236-0.27603,12.25415-0.94788c0.42834,0.97614,0.67554,2.06787,0.67554,3.2251
			c0,3.24071-1.52552,5.10109-2.63672,6.9165c-0.7666,1.25391-1.7207,2.81445-4.00195,2.81445
			c-0.04492,0-0.08984,0.00293-0.13379,0.00879c-2.74049-0.06427-3.52713-2.49109-4.39355-3.62646
			c0,0-0.00073-0.0011-0.00122-0.00165C30.35853,18.43163,29.39879,15.68732,30.2959,12.56262z M33.86865,26.22748
			c-0.00439-0.10779-0.01111-0.21283-0.01733-0.31836c1.27002,0.6377,2.4187,0.67096,2.6272,0.67096
			c0.06152,0,0.12012-0.00342,0.17578-0.00977c1.07031-0.01013,1.93298-0.2793,2.66138-0.66327
			c-0.00049,0.03296-0.00513,0.06256-0.00513,0.09589v0.13818c0.0249-0.0069,0.05103-0.00897,0.07617-0.01532
			c-0.47107,0.80461-1.04435,2.23131-2.80371,6.24286l-2.66113-6.05615C33.90808,26.28119,33.88403,26.25763,33.86865,26.22748z
			 M29.95313,21.3924c0.03784,0.05774,0.07617,0.11517,0.11499,0.17249c0.90434,1.39949,1.51913,2.04937,1.73608,3.81293
			c-0.61548,0.07916-1.23267,0.17615-1.85107,0.28711V21.3924z M12.68481,32.55719c1.71061,0.87413,3.65414,0.92059,5.45557,0.00018
			c-0.00613,0.44062-0.00416,0.28838-0.00464,0.32135c-0.18763,0.36031-1.97703,4.45857-2.72656,6.15106
			c-1.07603-2.4356-2.51685-5.7594-2.71973-6.15045C12.68898,32.84628,12.69095,32.9989,12.68481,32.55719z M18.49023,14.94678
			c-1.86646,1.15668-5.67163,3.24957-9.11743,3.50311c1.02859-2.50786,3.3161-4.30846,5.96997-4.33588
			c0.02173-0.00024,0.04272-0.00366,0.06445-0.00366C16.51416,14.11035,17.6046,14.42869,18.49023,14.94678z M8.77441,21.49951
			c0-0.35059,0.02966-0.69287,0.07227-1.03058c4.51709-0.06384,9.48828-3.01935,11.28149-4.19049
			c1.29764,1.47884,1.91582,3.45524,1.91467,5.39124c-0.0011,1.86261-0.57593,3.94373-2.10242,5.94263
			c-0.81632,1.06918-1.66842,3.61816-4.52734,3.61816c-2.86182,0-3.66962-2.49363-4.52832-3.61816
			C9.56348,25.88184,8.77441,23.59668,8.77441,21.49951z M27.8252,44.55029H3v-6.31885c0-1.39844,0.91309-2.6416,2.2207-3.02441
			c1.93457-0.56592,3.89355-0.97412,5.79199-1.21143l2.87305,6.53906c0.26563,0.60352,0.86328,0.99365,1.52246,0.99365
			c0.6582,0,1.25586-0.38916,1.52246-0.99219l2.87988-6.53809c1.5812,0.19704,3.78489,0.62098,5.79492,1.20947
			c1.30664,0.38232,2.21973,1.62549,2.21973,3.02393V44.55029z M49,37.89063H29.79736
			c-0.14258-2.13855-1.58508-4.00458-3.62939-4.60303c-0.66199-0.1936-1.32715-0.36322-1.99316-0.52136v-1.19446
			c0-1.39844,0.91309-2.6416,2.21973-3.02393c1.93262-0.56592,3.89258-0.97363,5.79199-1.21143l2.87402,6.53906
			c0.26563,0.60352,0.86328,0.99365,1.52246,0.99365s1.25586-0.39014,1.52148-0.99268
			c1.45423-3.3011,2.48861-5.77015,2.88574-6.53711c1.92285,0.24023,3.86914,0.64648,5.79004,1.2085
			C48.08691,28.93018,49,30.17334,49,31.57178V37.89063z"></path></g></svg>