<svg xmlns="http://www.w3.org/2000/svg" width="24" height="24" fill="none" viewBox="0 0 24 24" id="live-broadcast"><path fill="url(#paint0_linear_1233_4353)" fill-rule="evenodd" d="M2 8C2 6.34315 3.34315 5 5 5H15C16.525 5 17.7842 6.13782 17.975 7.6108L19.4393 6.14645C20.3843 5.20149 22 5.87075 22 7.20711V16.7929C22 18.1293 20.3843 18.7985 19.4393 17.8536L17.975 16.3892C17.7842 17.8622 16.525 19 15 19H5C3.34315 19 2 17.6569 2 16V8ZM20 15.5858L18 13.5858V10.4142L20 8.41421V15.5858ZM16 8V10V14V16C16 16.5523 15.5523 17 15 17H5C4.44772 17 4 16.5523 4 16V8C4 7.44772 4.44772 7 5 7H15C15.5523 7 16 7.44772 16 8ZM4.79289 12.7071L5.5 12C4.79289 12.7071 4.79304 12.7073 4.7932 12.7074L4.79356 12.7078L4.79446 12.7087L4.79695 12.7112L4.80467 12.7188L4.83082 12.7444C4.85292 12.7659 4.88427 12.7962 4.92413 12.8339C5.00378 12.9092 5.1178 13.0148 5.26025 13.1405C5.54402 13.3908 5.94626 13.7262 6.41876 14.0637C7.30683 14.6981 8.65844 15.5 10 15.5C11.3416 15.5 12.6932 14.6981 13.5812 14.0637C14.0537 13.7262 14.456 13.3908 14.7397 13.1405C14.8822 13.0148 14.9962 12.9092 15.0759 12.8339C15.1157 12.7962 15.1471 12.7659 15.1692 12.7444L15.1953 12.7188L15.203 12.7112L15.2055 12.7087L15.2064 12.7078L15.2068 12.7074C15.207 12.7073 15.2071 12.7071 14.5 12L15.2071 12.7071C15.5976 12.3166 15.5976 11.6834 15.2071 11.2929L14.5 12C15.2071 11.2929 15.207 11.2927 15.2068 11.2926L15.2064 11.2922L15.2055 11.2913L15.203 11.2888L15.1953 11.2812L15.1692 11.2556C15.1471 11.2341 15.1157 11.2038 15.0759 11.1661C14.9962 11.0908 14.8822 10.9852 14.7397 10.8595C14.456 10.6092 14.0537 10.2738 13.5812 9.93627C12.6932 9.30193 11.3416 8.5 10 8.5C8.65844 8.5 7.30683 9.30193 6.41876 9.93627C5.94626 10.2738 5.54402 10.6092 5.26025 10.8595C5.1178 10.9852 5.00378 11.0908 4.92413 11.1661C4.88427 11.2038 4.85292 11.2341 4.83082 11.2556L4.80467 11.2812L4.79695 11.2888L4.79446 11.2913L4.79356 11.2922L4.7932 11.2926C4.79304 11.2927 4.79289 11.2929 5.5 12L4.79289 11.2929C4.40237 11.6834 4.40237 12.3166 4.79289 12.7071ZM7.58124 12.4363C7.37374 12.2881 7.1808 12.1393 7.00863 12C7.1808 11.8607 7.37374 11.7119 7.58124 11.5637C8.44317 10.9481 9.34156 10.5 10 10.5C10.6584 10.5 11.5568 10.9481 12.4188 11.5637C12.6263 11.7119 12.8192 11.8607 12.9914 12C12.8192 12.1393 12.6263 12.2881 12.4188 12.4363C11.5568 13.0519 10.6584 13.5 10 13.5C9.34156 13.5 8.44317 13.0519 7.58124 12.4363Z" clip-rule="evenodd"></path><defs><linearGradient id="paint0_linear_1233_4353" x1="12" x2="12" y1="5" y2="19" gradientUnits="userSpaceOnUse"><stop stop-color="#F857A6"></stop><stop offset="1" stop-color="#FF585A"></stop></linearGradient></defs></svg>