<svg xmlns="http://www.w3.org/2000/svg" data-name="Gradient Line" viewBox="0 0 24 24" id="clock"><defs><linearGradient id="a" x1="-10.02" x2="32.76" y1="-10.02" y2="32.76" gradientUnits="userSpaceOnUse"><stop offset="0" stop-color="#9cecfb"></stop><stop offset=".51" stop-color="#65c7f7"></stop><stop offset="1" stop-color="#0052d4"></stop></linearGradient></defs><path fill="url(#a)" d="M12,23A11,11,0,1,1,23,12,11,11,0,0,1,12,23ZM12,3a9,9,0,1,0,9,9A9,9,0,0,0,12,3ZM9,16a1,1,0,0,1-.71-.29,1,1,0,0,1,0-1.42L11,11.59V6a1,1,0,0,1,2,0v6a1,1,0,0,1-.29.71l-3,3A1,1,0,0,1,9,16Z"></path></svg>