<svg xmlns="http://www.w3.org/2000/svg" data-name="Layer 1" viewBox="0 0 100 100" id="video-player"><path fill="#1d1d1b" d="M88.21,7.67H11.79A8.8,8.8,0,0,0,3,16.46v43a8.8,8.8,0,0,0,8.79,8.8H88.21A8.8,8.8,0,0,0,97,59.5v-43A8.8,8.8,0,0,0,88.21,7.67ZM94,59.5a5.84,5.84,0,0,1-5.83,5.84H11.79A5.84,5.84,0,0,1,6,59.5v-43a5.84,5.84,0,0,1,5.83-5.83H88.21A5.84,5.84,0,0,1,94,16.46Z"></path><path fill="#1d1d1b" d="M63.57 35.58L39.38 23.19a3.19 3.19 0 00-1.47-.36 3.27 3.27 0 00-1.69.48 3.2 3.2 0 00-1.55 2.76V49.89a3.23 3.23 0 001.5 2.74 3.28 3.28 0 001.73.5 3.24 3.24 0 001.39-.31L63.48 41.39a3.24 3.24 0 00.09-5.81zm-1.36 3.13L38 50.14a.24.24 0 01-.26 0 .25.25 0 01-.13-.24V26.07a.26.26 0 01.13-.24.46.46 0 01.15 0 .3.3 0 01.12 0l24.19 12.4a.22.22 0 01.15.24C62.37 38.64 62.29 38.68 62.21 38.71zM27.92 76.2a6.13 6.13 0 00-6.11-6.11H20.39a6.13 6.13 0 00-6.11 6.11v3.53H7.49v3h6.79v3.52a6.12 6.12 0 006.11 6.12h1.42a6.12 6.12 0 006.11-6.12V82.69H92.5v-3H27.92zm-3 10a3.16 3.16 0 01-3.15 3.16H20.39a3.15 3.15 0 01-3.14-3.16v-10a3.15 3.15 0 013.14-3.14h1.42A3.15 3.15 0 0125 76.2z"></path></svg>